<svg xmlns="http://www.w3.org/2000/svg" viewBox="0 0 448.68 123.78"><defs><style>.cls-1{fill:#9aca3c;}.cls-2{fill:#ecf2fa;}</style></defs><title>logo_1office_GW_H</title><g id="Layer_2" data-name="Layer 2"><g id="Layer_1-2" data-name="Layer 1"><path class="cls-1" d="M48,42.94a48.41,48.41,0,0,1,3.84-19.54,46.73,46.73,0,0,1,2.57-5V2.5H29L0,21,12.94,41.1l13.75-9.48v52.7H54.43V67.75a48.35,48.35,0,0,1-2.58-5.13A49.66,49.66,0,0,1,48,42.94Z"/><path class="cls-2" d="M90.83,86.19q2.3.29,4.68.39,1.19,0,2.41,0a50.94,50.94,0,0,0,18-3.12q1-.39,2-.82a44.52,44.52,0,0,0,5.73-2.95q.9-.55,1.77-1.15,1.3-.89,2.53-1.87t2.37-2.05a39.26,39.26,0,0,0,2.9-3,41.17,41.17,0,0,0,6.7-10.8,41.64,41.64,0,0,0,2.6-8.52q.32-1.68.53-3.42t.28-3.54q.05-1.2.05-2.43t-.05-2.43q-.08-1.8-.28-3.53t-.53-3.39a40.62,40.62,0,0,0-1.79-6.38q-.38-1-.81-2a41.45,41.45,0,0,0-3-5.6,38.15,38.15,0,0,0-6.62-7.86,40.91,40.91,0,0,0-4.9-3.8q-.87-.57-1.77-1.11A44.79,44.79,0,0,0,118,4q-1-.42-2-.79a52.7,52.7,0,0,0-18-3q-1.21,0-2.41,0-2.38.09-4.68.38t-4.51.75a48.72,48.72,0,0,0-6.43,1.83q-1,.38-2,.79t-2,.87q-1,.46-1.9.95-1.87,1-3.6,2.14a40.05,40.05,0,0,0-4.87,3.8,38.37,38.37,0,0,0-6.57,7.86,42,42,0,0,0-3,5.6q-.43,1-.81,2t-.72,2.14A46,46,0,0,0,52.5,42.94a47,47,0,0,0,1.93,13.69A40.64,40.64,0,0,0,56,60.86a41.65,41.65,0,0,0,6.66,10.8,39.34,39.34,0,0,0,2.87,3q1.14,1.07,2.35,2.05t2.51,1.87A42,42,0,0,0,74,80.8q.93.51,1.9,1t2,.9q1,.43,2,.82a47.36,47.36,0,0,0,6.43,1.9Q88.53,85.89,90.83,86.19Zm.61-59.54a15.77,15.77,0,0,1,3.12-1,17.37,17.37,0,0,1,3.35-.32,17.14,17.14,0,0,1,3.34.32,15.2,15.2,0,0,1,3.08,1,15.91,15.91,0,0,1,5.14,3.52,14.29,14.29,0,0,1,1.58,2q.34.51.65,1.05a17.2,17.2,0,0,1,1.18,2.52,19.16,19.16,0,0,1,.91,3.45,22.72,22.72,0,0,1,.3,3.77,23.89,23.89,0,0,1-.3,3.87,19.71,19.71,0,0,1-.91,3.52,18.51,18.51,0,0,1-1.46,3.12,16.3,16.3,0,0,1-1.95,2.66,15.4,15.4,0,0,1-5.14,3.76,14.73,14.73,0,0,1-3.08,1,16.43,16.43,0,0,1-3.34.33,16.65,16.65,0,0,1-3.35-.33,15.28,15.28,0,0,1-3.12-1,14.65,14.65,0,0,1-5.14-3.76A17.76,17.76,0,0,1,83,50.34,19.68,19.68,0,0,1,82,46.82a23.9,23.9,0,0,1-.3-3.87,22.73,22.73,0,0,1,.3-3.77A19.14,19.14,0,0,1,83,35.72q.3-.82.66-1.58a15.84,15.84,0,0,1,1.68-2.77,14.18,14.18,0,0,1,1-1.19A15.11,15.11,0,0,1,91.44,26.65Z"/><polygon class="cls-2" points="174.97 56.58 199.81 56.58 199.81 34.05 174.85 34.05 174.85 25.49 203.16 25.49 203.16 2.5 147.93 2.5 147.93 84.31 174.97 84.31 174.97 56.58"/><polygon class="cls-2" points="259.85 34.05 234.89 34.05 234.89 25.49 263.2 25.49 263.2 2.5 207.96 2.5 207.96 84.31 235 84.31 235 56.58 259.85 56.58 259.85 34.05"/><rect class="cls-2" x="267.62" y="2.5" width="27.74" height="81.82"/><polygon class="cls-2" points="416.78 61.43 416.78 53.81 445.32 53.81 445.32 32.43 416.78 32.43 416.78 25.38 448.68 25.38 448.68 2.5 390.9 2.5 390.9 84.31 448.68 84.31 448.68 61.43 416.78 61.43"/><polygon class="cls-1" points="39.9 116.11 39.8 116.11 33.47 98.8 26.69 98.8 26.69 123.16 30.82 123.16 30.82 103.58 30.88 103.58 38.18 123.16 41.21 123.16 48.6 103.58 48.67 103.58 48.67 123.16 52.98 123.16 52.98 98.8 46.16 98.8 39.9 116.11"/><path class="cls-1" d="M65.12,98.8l-10.6,24.36h4.85l2.2-5.57H72.14l2.27,5.57h5L68.87,98.8Zm-2.07,15.07L66.88,104l3.75,9.91Z"/><polygon class="cls-1" points="101.39 98.8 95.54 98.8 85.35 109.33 85.25 109.33 85.25 98.8 80.92 98.8 80.92 123.16 85.25 123.16 85.25 110.95 85.35 110.95 96.06 123.16 102.15 123.16 90 110.05 101.39 98.8"/><rect class="cls-1" x="103.76" y="98.8" width="4.34" height="24.36"/><polygon class="cls-1" points="129.74 117.04 129.67 117.04 118.35 98.8 112.61 98.8 112.61 123.16 116.94 123.16 116.94 104.34 117.01 104.34 128.57 123.16 134.08 123.16 134.08 98.8 129.74 98.8 129.74 117.04"/><path class="cls-1" d="M150.59,112.84h5.13V119a12.54,12.54,0,0,1-4.85.86,9.31,9.31,0,0,1-3.63-.67,7.74,7.74,0,0,1-2.72-1.87,8.37,8.37,0,0,1-1.72-2.84,10.32,10.32,0,0,1-.6-3.6,10,10,0,0,1,.6-3.51,8.55,8.55,0,0,1,1.7-2.82,7.84,7.84,0,0,1,2.67-1.89,8.6,8.6,0,0,1,3.49-.69,9,9,0,0,1,3.63.72,7.39,7.39,0,0,1,2.6,1.76l3-3.23A10.93,10.93,0,0,0,156,99a16.21,16.21,0,0,0-5.35-.84,14.91,14.91,0,0,0-5.23.89,12.37,12.37,0,0,0-4.18,2.55,11.75,11.75,0,0,0-2.79,4,13.22,13.22,0,0,0-1,5.28,13.43,13.43,0,0,0,1,5.21,12,12,0,0,0,2.74,4.06,12.33,12.33,0,0,0,4.2,2.65,14.84,14.84,0,0,0,5.4.95,23.48,23.48,0,0,0,5.11-.5,18.89,18.89,0,0,0,4.08-1.39V109.26h-9.32Z"/><path class="cls-1" d="M184.8,110.33v-.07a6.51,6.51,0,0,0,3.06-1.93,5,5,0,0,0,1.17-3.41,5.5,5.5,0,0,0-2.36-4.73,7,7,0,0,0-2.39-1.07,11.47,11.47,0,0,0-2.72-.33h-9.5v24.36h8.77a16,16,0,0,0,3.39-.36,9,9,0,0,0,3-1.19,6.34,6.34,0,0,0,2.08-2.18,6.57,6.57,0,0,0,.79-3.36,5.35,5.35,0,0,0-1.48-4A6.39,6.39,0,0,0,184.8,110.33Zm-8.4-7.95h3.48a7.43,7.43,0,0,1,3.65.69,2.49,2.49,0,0,1,1.17,2.34,2.88,2.88,0,0,1-1.14,2.44,5.4,5.4,0,0,1-3.3.86H176.4Zm8.79,15.42a3.48,3.48,0,0,1-1.34,1.1,5.87,5.87,0,0,1-1.77.5,14.49,14.49,0,0,1-1.79.12H176.4v-7.09h4.06a8.12,8.12,0,0,1,4,.76,2.84,2.84,0,0,1,1.31,2.68A3.17,3.17,0,0,1,185.19,117.8Z"/><path class="cls-1" d="M208.54,114a8.28,8.28,0,0,1-.28,2.12,5.18,5.18,0,0,1-.91,1.87,4.71,4.71,0,0,1-1.69,1.34,6.8,6.8,0,0,1-5.2,0,4.71,4.71,0,0,1-1.69-1.34,5.18,5.18,0,0,1-.91-1.87,8.28,8.28,0,0,1-.28-2.12V98.8h-4.34v15.42a10.22,10.22,0,0,0,.74,4,8.58,8.58,0,0,0,2.07,3,9.26,9.26,0,0,0,3.11,1.91,11.6,11.6,0,0,0,7.78,0,9.08,9.08,0,0,0,3.1-1.91,8.91,8.91,0,0,0,2.06-3,10,10,0,0,0,.76-4V98.8h-4.34Z"/><path class="cls-1" d="M230.2,111a9.41,9.41,0,0,0-2.31-1.27q-1.26-.48-2.43-.86t-1.89-.62a6.42,6.42,0,0,1-1.46-.72,3.11,3.11,0,0,1-.95-1,2.73,2.73,0,0,1-.34-1.41,2.84,2.84,0,0,1,.4-1.53,3.22,3.22,0,0,1,1-1,4.62,4.62,0,0,1,1.38-.59,6.27,6.27,0,0,1,1.51-.19,5.81,5.81,0,0,1,2.53.6,5.27,5.27,0,0,1,1.94,1.5l2.82-3.1a9.21,9.21,0,0,0-3.32-2,11.6,11.6,0,0,0-3.77-.65,12.5,12.5,0,0,0-3.25.43,9.05,9.05,0,0,0-2.86,1.31,6.84,6.84,0,0,0-2,2.22,6.3,6.3,0,0,0-.77,3.2,6.64,6.64,0,0,0,.55,2.87,6.13,6.13,0,0,0,1.43,1.94,7.3,7.3,0,0,0,2,1.27,21.34,21.34,0,0,0,2.2.83l2.17.72a8.6,8.6,0,0,1,1.79.81,4,4,0,0,1,1.2,1.1,2.72,2.72,0,0,1,.45,1.6,3.24,3.24,0,0,1-.4,1.67,3.56,3.56,0,0,1-1,1.12,4.13,4.13,0,0,1-1.43.64,6.66,6.66,0,0,1-1.55.19,6.73,6.73,0,0,1-2.94-.72,6.22,6.22,0,0,1-2.39-2l-3.1,2.89a9,9,0,0,0,3.72,2.6,12.79,12.79,0,0,0,4.64.88,11.86,11.86,0,0,0,3.41-.48,8.2,8.2,0,0,0,2.82-1.45,7.06,7.06,0,0,0,1.93-2.43,7.64,7.64,0,0,0,.72-3.42,6.08,6.08,0,0,0-.67-3A6.31,6.31,0,0,0,230.2,111Z"/><rect class="cls-1" x="236.07" y="98.8" width="4.34" height="24.36"/><polygon class="cls-1" points="262.04 117.04 261.98 117.04 250.65 98.8 244.91 98.8 244.91 123.16 249.24 123.16 249.24 104.34 249.31 104.34 260.87 123.16 266.38 123.16 266.38 98.8 262.04 98.8 262.04 117.04"/><polygon class="cls-1" points="275.22 112.43 286.4 112.43 286.4 108.78 275.22 108.78 275.22 102.59 287.02 102.59 287.02 98.8 270.89 98.8 270.89 123.16 287.64 123.16 287.64 119.31 275.22 119.31 275.22 112.43"/><path class="cls-1" d="M304,111a9.41,9.41,0,0,0-2.31-1.27q-1.26-.48-2.43-.86t-1.89-.62a6.42,6.42,0,0,1-1.46-.72,3.11,3.11,0,0,1-.95-1,2.73,2.73,0,0,1-.34-1.41,2.84,2.84,0,0,1,.4-1.53,3.22,3.22,0,0,1,1-1,4.62,4.62,0,0,1,1.38-.59,6.27,6.27,0,0,1,1.51-.19,5.81,5.81,0,0,1,2.53.6,5.27,5.27,0,0,1,1.94,1.5l2.82-3.1a9.21,9.21,0,0,0-3.32-2,11.6,11.6,0,0,0-3.77-.65,12.5,12.5,0,0,0-3.25.43,9,9,0,0,0-2.86,1.31,6.84,6.84,0,0,0-2,2.22,6.3,6.3,0,0,0-.77,3.2,6.64,6.64,0,0,0,.55,2.87,6.13,6.13,0,0,0,1.43,1.94,7.3,7.3,0,0,0,2,1.27,21.34,21.34,0,0,0,2.2.83l2.17.72a8.6,8.6,0,0,1,1.79.81,4,4,0,0,1,1.2,1.1,2.72,2.72,0,0,1,.45,1.6,3.24,3.24,0,0,1-.4,1.67,3.56,3.56,0,0,1-1,1.12,4.13,4.13,0,0,1-1.43.64,6.66,6.66,0,0,1-1.55.19,6.73,6.73,0,0,1-2.94-.72,6.22,6.22,0,0,1-2.39-2l-3.1,2.89a9,9,0,0,0,3.72,2.6,12.79,12.79,0,0,0,4.64.88,11.86,11.86,0,0,0,3.41-.48,8.2,8.2,0,0,0,2.82-1.45,7.06,7.06,0,0,0,1.93-2.43,7.64,7.64,0,0,0,.72-3.42,6.08,6.08,0,0,0-.67-3A6.31,6.31,0,0,0,304,111Z"/><path class="cls-1" d="M322.93,111a9.41,9.41,0,0,0-2.31-1.27q-1.26-.48-2.43-.86t-1.89-.62a6.42,6.42,0,0,1-1.46-.72,3.11,3.11,0,0,1-.95-1,2.73,2.73,0,0,1-.34-1.41,2.84,2.84,0,0,1,.4-1.53,3.22,3.22,0,0,1,1-1,4.62,4.62,0,0,1,1.38-.59,6.27,6.27,0,0,1,1.51-.19,5.81,5.81,0,0,1,2.53.6,5.27,5.27,0,0,1,1.94,1.5l2.82-3.1a9.21,9.21,0,0,0-3.32-2,11.6,11.6,0,0,0-3.77-.65,12.5,12.5,0,0,0-3.25.43A9,9,0,0,0,312,99.92a6.84,6.84,0,0,0-2,2.22,6.3,6.3,0,0,0-.77,3.2,6.64,6.64,0,0,0,.55,2.87,6.13,6.13,0,0,0,1.43,1.94,7.3,7.3,0,0,0,2,1.27,21.34,21.34,0,0,0,2.2.83l2.17.72a8.6,8.6,0,0,1,1.79.81,4,4,0,0,1,1.2,1.1,2.72,2.72,0,0,1,.45,1.6,3.24,3.24,0,0,1-.4,1.67,3.56,3.56,0,0,1-1,1.12,4.13,4.13,0,0,1-1.43.64,6.66,6.66,0,0,1-1.55.19,6.73,6.73,0,0,1-2.94-.72,6.22,6.22,0,0,1-2.39-2l-3.1,2.89a9,9,0,0,0,3.72,2.6,12.79,12.79,0,0,0,4.64.88,11.86,11.86,0,0,0,3.41-.48,8.2,8.2,0,0,0,2.82-1.45,7.06,7.06,0,0,0,1.93-2.43,7.64,7.64,0,0,0,.72-3.42,6.08,6.08,0,0,0-.67-3A6.31,6.31,0,0,0,322.93,111Z"/><path class="cls-1" d="M349.56,111a9.41,9.41,0,0,0-2.31-1.27q-1.26-.48-2.43-.86t-1.89-.62a6.42,6.42,0,0,1-1.46-.72,3.11,3.11,0,0,1-.95-1,2.73,2.73,0,0,1-.34-1.41,2.84,2.84,0,0,1,.4-1.53,3.22,3.22,0,0,1,1-1A4.63,4.63,0,0,1,343,102a6.27,6.27,0,0,1,1.51-.19,5.81,5.81,0,0,1,2.53.6,5.27,5.27,0,0,1,1.94,1.5l2.82-3.1a9.21,9.21,0,0,0-3.32-2,11.6,11.6,0,0,0-3.77-.65,12.5,12.5,0,0,0-3.25.43,9.05,9.05,0,0,0-2.86,1.31,6.84,6.84,0,0,0-2,2.22,6.3,6.3,0,0,0-.77,3.2,6.64,6.64,0,0,0,.55,2.87,6.13,6.13,0,0,0,1.43,1.94,7.3,7.3,0,0,0,2,1.27,21.34,21.34,0,0,0,2.2.83l2.17.72a8.6,8.6,0,0,1,1.79.81,4,4,0,0,1,1.2,1.1,2.72,2.72,0,0,1,.45,1.6,3.24,3.24,0,0,1-.4,1.67,3.56,3.56,0,0,1-1,1.12,4.13,4.13,0,0,1-1.43.64,6.66,6.66,0,0,1-1.55.19,6.73,6.73,0,0,1-2.94-.72,6.22,6.22,0,0,1-2.39-2l-3.1,2.89a9,9,0,0,0,3.72,2.6,12.79,12.79,0,0,0,4.64.88,11.86,11.86,0,0,0,3.41-.48,8.2,8.2,0,0,0,2.82-1.45,7.06,7.06,0,0,0,1.93-2.43A7.64,7.64,0,0,0,352,116a6.08,6.08,0,0,0-.67-3A6.31,6.31,0,0,0,349.56,111Z"/><rect class="cls-1" x="355.43" y="98.8" width="4.34" height="24.36"/><polygon class="cls-1" points="377.49 116.11 377.38 116.11 371.05 98.8 364.27 98.8 364.27 123.16 368.4 123.16 368.4 103.58 368.47 103.58 375.76 123.16 378.79 123.16 386.19 103.58 386.26 103.58 386.26 123.16 390.56 123.16 390.56 98.8 383.75 98.8 377.49 116.11"/><path class="cls-1" d="M409.69,100.42a7.9,7.9,0,0,0-2.89-1.24A17.36,17.36,0,0,0,403,98.8h-7.95v24.36h4.34V113.08h3.34a16.92,16.92,0,0,0,3.65-.38,9,9,0,0,0,3-1.22,6.15,6.15,0,0,0,2-2.22,7,7,0,0,0,.76-3.41,7.34,7.34,0,0,0-.65-3.23A5.76,5.76,0,0,0,409.69,100.42Zm-2.31,7.23a3.15,3.15,0,0,1-1.2,1.08,5.63,5.63,0,0,1-1.72.55,12.81,12.81,0,0,1-2,.15h-3v-7h3.17a15.43,15.43,0,0,1,1.94.12,5.09,5.09,0,0,1,1.69.5,2.88,2.88,0,0,1,1.63,2.79A3.24,3.24,0,0,1,407.39,107.65Z"/><polygon class="cls-1" points="419.53 98.8 415.2 98.8 415.2 123.16 429.89 123.16 429.89 119.31 419.53 119.31 419.53 98.8"/><polygon class="cls-1" points="436.25 112.43 447.44 112.43 447.44 108.78 436.25 108.78 436.25 102.59 448.68 102.59 448.68 98.8 431.92 98.8 431.92 123.16 448.68 123.16 448.68 119.31 436.25 119.31 436.25 112.43"/><path class="cls-2" d="M343.27,86.81a43.41,43.41,0,0,0,43.11-38.43h-26a17.86,17.86,0,1,1-.28-10.82h26.12a43.4,43.4,0,1,0-43,49.26Z"/></g></g></svg>